# xmcd CD database file
#
# Track frame offsets:
#	182
#	18105
#	34147
#	46827
#	64745
#	74455
#	97510
#	110007
#	127842
#	141800
#	156502
#	173770
#
# Disc length: 2678 seconds
#
# Revision: 3
# Processed by: cddbd v1.4PL0 Copyright (c) Steve Scherf et al.
# Submitted via: CDex 1.40Beta8
#
DISCID=970a740c
DTITLE=TERRY - McGHEE - Sonny and Brownie
DYEAR=1973
DGENRE=Blues
TTITLE0=People Get Ready
TTITLE1=Bring It On Home To Me
TTITLE2=You Bring Out The Boogie In Me
TTITLE3=Sail Away
TTITLE4=Sonny's Thing
TTITLE5=White Boy Lost In The Blues
TTITLE6=The Battle Is Over
TTITLE7=Walkin' My Blues Away
TTITLE8=Big Wind
TTITLE9=Jesus Gonna' Make It Alright
TTITLE10=God And Man
TTITLE11=On The Road Again
EXTD=YEAR: 1973 ID3G: 0
EXTT0=
EXTT1=
EXTT2=
EXTT3=
EXTT4=
EXTT5=
EXTT6=
EXTT7=
EXTT8=
EXTT9=
EXTT10=
EXTT11=
PLAYORDER=
